# AST/ASF file generated using VICON BodyLanguage
# -----------------------------------------------
:version 1.10
:name VICON
:units
  mass 1.0
  length 0.45
  angle deg
:documentation
   .ast/.asf automatically generated from VICON data using
   VICON BodyBuilder and BodyLanguage model FoxedUp or BRILLIANT.MOD
:root
   order TX TY TZ RX RY RZ
   axis XYZ
   position 0 0 0  
   orientation 0 0 0 
:bonedata
  begin
     id 1 
     name lhipjoint
     direction 0.692814 -0.645514 0.321437 
     length 2.38754 
     axis 0 0 0  XYZ
  end
  begin
     id 2 
     name lfemur
     direction 0.34202 -0.939693 0  
     length 6.41921  
     axis 0 0 20  XYZ
    dof rx ry rz
    limits (-160.0 20.0)
           (-70.0 70.0)
           (-60.0 70.0)
  end
  begin
     id 3 
     name ltibia
     direction 0.34202 -0.939693 0   
     length 6.98247   
     axis 0 0 20   XYZ
    dof rx
    limits (-10.0 170.0)
  end
  begin
     id 4 
     name lfoot
     direction 0.0947186 -0.260237 0.960888   
     length 1.83034   
     axis -90 7.62852e-016 20   XYZ
    dof rx rz
    limits (-45.0 90.0)
           (-70.0 20.0)
  end
  begin
     id 5 
     name ltoes
     direction 1.53538e-011 -4.21952e-011 1   
     length 0.920499   
     axis -90 7.62852e-016 20   XYZ
    dof rx
    limits (-90.0 20.0)
  end
  begin
     id 6 
     name rhipjoint
     direction -0.631686 -0.693949 0.345555   
     length 2.2209  
     axis 0 0 0  XYZ 
  end
  begin
     id 7 
     name rfemur
     direction -0.34202 -0.939693 0   
     length 6.49542   
     axis 0 0 -20   XYZ
    dof rx ry rz
    limits (-160.0 20.0)
           (-70.0 70.0)
           (-70.0 60.0)
  end
  begin
     id 8 
     name rtibia
     direction -0.34202 -0.939693 0   
     length 7.21712   
     axis 0 0 -20   XYZ
    dof rx
    limits (-10.0 170.0)
 end
 begin
     id 9 
     name rfoot
     direction -0.0825378 -0.226771 0.970444   
     length 1.89724  
     axis -90 -7.62852e-016 -20   XYZ
    dof rx rz
    limits (-45.0 90.0)
           (-20.0 70.0)
  end
  begin
     id 10 
     name rtoes
     direction -1.53515e-011 -4.22016e-011 1   
     length 0.955868   
     axis -90 -7.62852e-016 -20   XYZ
    dof rx
    limits (-90.0 20.0)
  end
  begin
     id 11 
     name lowerback
     direction -0.0104711 0.984802 -0.173368   
     length 1.84931   
     axis 0 0 0   XYZ
    dof rx ry rz
    limits (-20.0 45.0)
           (-30.0 30.0)
           (-30.0 30.0)
  end
  begin
     id 12 
     name upperback
     direction -0.00286433 0.999996 -0.000382853   
     length 1.85768   
     axis 0 0 0   XYZ
    dof rx ry rz
    limits (-20.0 45.0)
           (-30.0 30.0)
           (-30.0 30.0)
  end
  begin
     id 13 
     name thorax
     direction 0.00167534 0.996793 0.0800069   
     length 1.92   
     axis 0 0 0   XYZ
    dof rx ry rz
    limits (-20.0 45.0)
           (-30.0 30.0)
           (-30.0 30.0)
  end
  begin
     id 14 
     name lowerneck
     direction -0.0672491 0.995415 0.068018   
     length 1.58923   
     axis 0 0 0   XYZ
    dof rx ry rz
    limits (-20.0 45.0)
           (-30.0 30.0)
           (-30.0 30.0)
  end
  begin
     id 15 
     name upperneck
     direction 0.0958019 0.982476 -0.159884   
     length 1.60189   
     axis 0 0 0   XYZ
    dof rx ry rz
    limits (-20.0 45.0)
           (-30.0 30.0)
           (-30.0 30.0)
  end
  begin
     id 16
     name head
     direction 0.032989 0.997338 -0.0650226  
     length 1.61681  
     axis 0 0 0   XYZ
    dof rx ry rz
    limits (-20.0 45.0)
           (-30.0 30.0)
           (-30.0 30.0)
  end
  begin
     id 17 
     name lclavicle
     direction 0.954279 0.298875 -0.00496069  
     length 2.99449  
     axis 0 0 0   XYZ
    dof ry rz
    limits (-20.0 10.0)
           (0.0 20.0)
  end
  begin
     id 18 
     name lhumerus
     direction 1 -4.48985e-011 -4.2057e-027   
     length 4.79185   
     axis 180 -30 -90   XYZ
    dof rx ry rz
    limits (-60.0 90.0)
           (-90.0 90.0)
           (-90.0 90.0)
  end
  begin
     id 19
     name lradius
     direction 1 -4.48945e-011 1.15441e-028   
     length 2.65553   
     axis 180 -30 -90   XYZ
    dof rx
    limits (-10.0 170.0)
  end
  begin
     id 20
     name lwrist
     direction 1 -4.4899e-011 4.8894e-028   
     length 1.32777   
     axis -2.56392e-016 90 90   XYZ
    dof ry
    limits (-180.0 0.0)
 end
  begin
     id 21 
     name lhand
     direction 1 -4.48908e-011 9.7788e-028   
     length 0.743904   
     axis -6.23971e-016 90 90   XYZ
    dof rx rz
    limits (-90.0 90.0)
           (-45.0 45.0)
  end
  begin
     id 22 
     name lfingers
     direction 1 -4.49068e-011 1.95576e-027   
     length 0.599754   
     axis -1.24794e-015 90 90   XYZ
    dof rx
    limits (0.0 90.0)
  end
  begin
     id 23
     name lthumb
     direction 0.707107 -6.34883e-011 0.707107   
     length 0.861131   
     axis -90 45 2.85299e-015   XYZ
    dof rx rz
    limits (-45.0 45.0)
           (-45.0 45.0)
  end
  begin
     id 24 
     name rclavicle
     direction -0.957921 0.286916 0.00811568   
     length 3.06817  
     axis 0 0 0   XYZ 
    dof ry rz
    limits (-10.0 20.0)
           (-20.0 0.0)
  end
  begin
     id 25 
     name rhumerus
     direction -1 -4.48971e-011 -3.07942e-027  
     length 4.77254   
     axis 180 30 90   XYZ
    dof rx ry rz
    limits (-90.0 60.0)
           (-90.0 90.0)
           (-90.0 90.0)
  end
  begin
     id 26 
     name rradius
     direction -1 -4.48957e-011 -9.6815e-028   
     length 2.75995   
     axis 180 30 90   XYZ
    dof rx
    limits (-10.0 170.0)
  end
  begin
     id 27 
     name rwrist
     direction -1 -4.48979e-011 4.8894e-028   
     length 1.37997   
     axis -2.56392e-016 -90 -90   XYZ
    dof ry
    limits (-180.0 0.0)
  end
  begin
     id 28
     name rhand
     direction -1 -4.48906e-011 9.7788e-028   
     length 0.701619   
     axis -6.23971e-016 -90 -90   XYZ
    dof rx rz
    limits (-90.0 90.0)
           (-45.0 45.0)
  end
  begin
     id 29
     name rfingers
     direction -1 -4.49018e-011 1.95576e-027   
     length 0.565663   
     axis -1.24794e-015 -90 -90   XYZ
    dof rx
    limits (0.0 90.0)
  end
  begin
     id 30
     name rthumb
     direction -0.707107 -6.34881e-011 0.707107   
     length 0.812183   
     axis -90 -45 -2.85299e-015   XYZ
    dof rx rz
    limits (-45.0 45.0)
           (-45.0 45.0)
  end
:hierarchy
  begin
    root lhipjoint rhipjoint lowerback
    lhipjoint lfemur
    lfemur ltibia
    ltibia lfoot
    lfoot ltoes
    rhipjoint rfemur
    rfemur rtibia
    rtibia rfoot
    rfoot rtoes
    lowerback upperback
    upperback thorax
    thorax lowerneck lclavicle rclavicle
    lowerneck upperneck
    upperneck head
    lclavicle lhumerus
    lhumerus lradius
    lradius lwrist
    lwrist lhand lthumb
    lhand lfingers
    rclavicle rhumerus
    rhumerus rradius
    rradius rwrist
    rwrist rhand rthumb
    rhand rfingers
  end

#!OML:ASF F:\VICON\USERDATA\INSTALL\rory3\rory3.ASF
:FULLY-SPECIFIED
:DEGREES
17
root -17.055 15.9792 11.3668 -174.052 59.3988 -175.238
lowerback 9.22795 0.239793 1.64705
upperback -2.24708 0.564363 0.548373
thorax -7.54709 0.216477 -0.437711
lowerneck -12.2692 -2.32224 -9.9789
upperneck 15.1544 -3.57662 15.2478
head 7.10016 -0.885858 6.38557
rclavicle -5.4189e-014 1.2921e-015
rhumerus -31.3503 -0.542698 -88.503
rradius 21.9992
rwrist 16.3698
rhand -16.9776 15.8226
rfingers 7.12502
rthumb 9.25697 -13.9542
lclavicle -5.4189e-014 1.2921e-015
lhumerus -30.5137 10.7346 86.1818
lradius 21.9917
lwrist -6.08999
lhand -12.1624 11.518
lfingers 7.12502
lthumb 13.9005 41.0335
rfemur -4.76809 8.67235 22.6475
rtibia 21.5411
rfoot -21.0295 -19.4111
rtoes 7.4019
lfemur -10.8819 -11.6298 -19.1012
ltibia 26.7095
lfoot -15.8328 10.6228
ltoes -5.39325
18
root -17.0625 15.9828 11.3536 -173.457 59.4426 -174.629
lowerback 9.27786 0.256131 1.88771
upperback -2.25563 0.624659 0.637363
thorax -7.58292 0.237436 -0.489171
lowerneck -12.4161 -2.58183 -9.99487
upperneck 15.7077 -3.93239 14.9956
head 7.34872 -1.06066 6.2844
rclavicle -2.11038e-014 -1.14301e-014
rhumerus -31.1839 -0.787326 -88.4211
rradius 21.8928
rwrist 16.5614
rhand -17.0021 15.9514
rfingers 7.12502
rthumb 9.23332 -13.8265
lclavicle -2.11038e-014 -1.14301e-014
lhumerus -30.5156 10.5321 86.2241
lradius 22.0767
lwrist -5.90511
lhand -12.342 11.6419
lfingers 7.12502
lthumb 13.7274 41.1691
rfemur -4.91912 9.1032 22.9611
rtibia 21.6405
rfoot -21.18 -19.7852
rtoes 7.416
lfemur -10.9836 -11.6607 -18.7953
ltibia 26.7345
lfoot -16.0623 10.9433
ltoes -6.48354
19
root -17.0581 15.9804 11.3214 -173.977 59.4384 -175.16
lowerback 9.17888 0.286663 1.70598
upperback -2.20455 0.633088 0.557668
thorax -7.47156 0.24849 -0.471301
lowerneck -12.3604 -2.81781 -10.1062
upperneck 16.0797 -4.23897 14.782
head 7.49841 -1.22631 6.20989
rclavicle -1.42799e-014 1.02374e-014
rhumerus -31.1133 -1.04764 -88.2956
rradius 21.8619
rwrist 16.6584
rhand -17.0084 15.7256
rfingers 7.12502
rthumb 9.2272 -14.0525
lclavicle -1.42799e-014 1.02374e-014
lhumerus -30.5622 10.2728 86.3426
lradius 22.1438
lwrist -5.62481
lhand -12.4284 11.8247
lfingers 7.12502
lthumb 13.6441 41.3575
rfemur -4.89138 8.80964 22.551
rtibia 21.858
rfoot -21.0102 -19.737
rtoes 5.93829
lfemur -10.7334 -11.6955 -19.2565
ltibia 26.6248
lfoot -16.2307 11.1393
ltoes -7.48317
20
root -17.0489 15.9714 11.2841 -175.09 59.4494 -176.297
lowerback 9.03615 0.357618 1.22486
upperback -2.12898 0.654477 0.416773
thorax -7.31093 0.277506 -0.350685
lowerneck -12.224 -3.05403 -10.3291
upperneck 16.463 -4.53471 14.6085
head 7.63923 -1.39274 6.16971
rclavicle -8.9068e-014 8.59744e-015
rhumerus -31.0421 -1.44274 -88.0266
rradius 21.7557
rwrist 16.8784
rhand -16.9759 15.6324
rfingers 7.12502
rthumb 9.25857 -14.1443
lclavicle -8.9068e-014 8.59744e-015
lhumerus -30.6116 10.11 86.4996
lradius 22.1404
lwrist -5.55654
lhand -12.4206 11.8585
lfingers 7.12502
lthumb 13.6517 41.3908
rfemur -4.77069 8.64945 21.8175
rtibia 22.1757
rfoot -21.1779 -19.6736
rtoes 5.20862
lfemur -10.311 -11.7058 -20.0887
ltibia 26.4153
lfoot -16.0995 10.7191
ltoes -6.03255
21
root -17.0467 15.9662 11.2548 -175.892 59.4455 -177.158
lowerback 8.93564 0.430384 0.883774
upperback -2.05158 0.696281 0.249903
thorax -7.17145 0.30922 -0.339187
lowerneck -12.2431 -3.33239 -10.3989
upperneck 16.919 -4.90944 14.4244
head 7.84072 -1.5799 6.09235
rclavicle -4.87597e-014 3.77691e-015
rhumerus -30.8757 -2.02969 -87.7968
rradius 21.5938
rwrist 17.2544
rhand -16.9551 15.7594
rfingers 7.12502
rthumb 9.27862 -14.0164
lclavicle -4.87597e-014 3.77691e-015
lhumerus -30.6089 9.97803 86.5126
lradius 22.1841
lwrist -5.61998
lhand -12.3092 11.6804
lfingers 7.12502
lthumb 13.759 41.2055
rfemur -4.8183 8.46986 21.235
rtibia 22.5452
rfoot -21.1254 -19.7274
rtoes 4.1758
lfemur -10.0475 -11.7121 -20.7002
ltibia 26.1823
lfoot -16.0339 10.5939
ltoes -5.69667
22
root -17.05 15.9633 11.2302 -176.041 59.4314 -177.292
lowerback 8.92423 0.448871 0.848889
upperback -1.98169 0.714583 0.229566
thorax -7.09035 0.319703 -0.343173
lowerneck -12.5422 -3.60355 -10.4908
upperneck 17.6194 -5.26255 14.2125
head 8.17209 -1.74646 6.01832
rclavicle 7.82109e-014 3.08116e-015
rhumerus -30.7668 -2.22504 -87.6341
rradius 21.6266
rwrist 17.303
rhand -16.7762 16.051
rfingers 7.12502
rthumb 9.45126 -13.717
lclavicle 7.82109e-014 3.08116e-015
lhumerus -30.5621 9.84844 86.5618
lradius 22.2386
lwrist -5.56755
lhand -12.2911 11.6528
lfingers 7.12502
lthumb 13.7764 41.1767
rfemur -4.93595 8.09167 21.0322
rtibia 22.8629
rfoot -20.0403 -20.0039
rtoes -0.354568
lfemur -9.89203 -11.8285 -20.8784
ltibia 26.0491
lfoot -16.2485 10.6837
ltoes -6.08498
23
root -17.0543 15.9597 11.2073 -176.011 59.3842 -177.236
lowerback 8.9697 0.422976 0.81725
upperback -1.96117 0.6834 0.321681
thorax -7.09649 0.308073 -0.224318
lowerneck -12.9954 -3.80358 -10.5807
upperneck 18.5622 -5.49008 13.8506
head 8.59398 -1.85909 5.91148
rclavicle 1.12726e-013 6.26172e-015
rhumerus -30.7496 -1.95373 -87.5338
rradius 21.8076
rwrist 16.8917
rhand -16.588 16.1326
rfingers 7.12502
rthumb 9.63286 -13.6271
lclavicle 1.12726e-013 6.26172e-015
lhumerus -30.5622 9.86766 86.672
lradius 22.258
lwrist -5.48579
lhand -12.2031 11.8144
lfingers 7.12502
lthumb 13.8613 41.3325
rfemur -4.99789 7.90342 20.9765
rtibia 23.0479
rfoot -18.9738 -20.3759
rtoes -4.27803
lfemur -9.86324 -11.893 -20.925
ltibia 26.1069
lfoot -16.5594 10.6396
ltoes -6.32238
24
root -17.0577 15.9573 11.1867 -175.98 59.3855 -177.24
lowerback 8.99734 0.378732 0.713806
upperback -1.98232 0.619061 0.407475
thorax -7.1375 0.282893 -0.0666739
lowerneck -12.8964 -3.9076 -10.9091
upperneck 18.9587 -5.58589 13.7873
head 8.72967 -1.92863 5.94989
rclavicle -4.19925e-014 -6.23687e-015
rhumerus -30.6772 -1.80724 -87.5024
rradius 21.8829
rwrist 16.7714
rhand -16.6779 15.9453
rfingers 7.12502
rthumb 9.54617 -13.8185
lclavicle -4.19925e-014 -6.23687e-015
lhumerus -30.6254 10.1574 86.6635
lradius 22.2441
lwrist -5.55243
lhand -12.2456 12.0282
lfingers 7.12502
lthumb 13.8203 41.5491
rfemur -5.04425 7.71326 20.8749
rtibia 23.0976
rfoot -18.9288 -20.186
rtoes -4.19887
lfemur -10.0103 -11.7818 -20.9752
ltibia 26.3479
lfoot -16.8846 10.9645
ltoes -8.37979
25
root -17.0634 15.9562 11.1693 -175.457 59.4402 -176.681
lowerback 9.06678 0.35009 0.89537
upperback -2.01395 0.613356 0.536438
thorax -7.21091 0.275484 -0.0331062
lowerneck -12.2732 -4.01523 -11.4704
upperneck 18.8654 -5.71739 14.0925
head 8.6261 -2.02183 6.14146
rclavicle -1.42838e-015 -1.88845e-015
rhumerus -30.4901 -2.02388 -87.4516
rradius 21.7686
rwrist 17.096
rhand -16.8203 15.8336
rfingers 7.12502
rthumb 9.40873 -13.9364
lclavicle -1.42838e-015 -1.88845e-015
lhumerus -30.6409 10.4686 86.5886
lradius 22.1902
lwrist -5.62265
lhand -12.3884 12.2004
lfingers 7.12502
lthumb 13.6827 41.7306
rfemur -5.11255 7.78456 21.1184
rtibia 23.1269
rfoot -18.819 -20.2094
rtoes -4.29839
lfemur -10.1994 -11.5258 -20.6963
ltibia 26.6309
lfoot -17.0449 11.0088
ltoes -9.69351
26
root -17.0713 15.9533 11.1509 -174.701 59.5187 -175.76
lowerback 9.22607 0.361993 1.28709
upperback -1.99832 0.690963 0.690246
thorax -7.28319 0.300686 -0.104839
lowerneck -12.134 -4.17008 -11.4725
upperneck 19.1961 -5.90704 13.8027
head 8.7304 -2.13616 6.02714
rclavicle 4.47584e-014 1.28713e-014
rhumerus -30.309 -2.41674 -87.2862
rradius 21.6864
rwrist 17.4528
rhand -16.7643 16.0627
rfingers 7.12502
rthumb 9.46279 -13.7049
lclavicle 4.47584e-014 1.28713e-014
lhumerus -30.583 10.6288 86.5266
lradius 22.1003
lwrist -5.72996
lhand -12.4106 12.1546
lfingers 7.12502
lthumb 13.6613 41.6862
rfemur -5.16415 8.11335 21.599
rtibia 23.2606
rfoot -18.8148 -20.4113
rtoes -4.29621
lfemur -10.2567 -11.4493 -20.2485
ltibia 26.8288
lfoot -17.082 10.5391
ltoes -8.76228
27
root -17.0718 15.9461 11.1272 -174.729 59.4703 -175.636
lowerback 9.34432 0.37379 1.28286
upperback -1.90874 0.709376 0.717851
thorax -7.25578 0.311031 -0.0769637
lowerneck -12.3025 -4.3065 -11.1319
upperneck 19.6926 -6.07199 13.2462
head 8.92575 -2.22685 5.76321
rclavicle 5.21926e-015 -6.21202e-016
rhumerus -30.1816 -2.69756 -87.1946
rradius 21.7598
rwrist 17.5349
rhand -16.6937 16.1591
rfingers 7.12502
rthumb 9.53084 -13.6053
lclavicle 5.21926e-015 -6.21202e-016
lhumerus -30.5179 10.424 86.5599
lradius 22.0703
lwrist -5.70817
lhand -12.4919 11.96
lfingers 7.12502
lthumb 13.583 41.4969
rfemur -5.06609 8.32267 21.6539
rtibia 23.4697
rfoot -18.945 -20.5712
rtoes -3.90126
lfemur -10.1343 -11.4524 -20.2679
ltibia 26.9623
lfoot -17.2601 10.0921
ltoes -7.91203
28
root -17.0666 15.9345 11.1006 -175.685 59.3614 -176.638
lowerback 9.33118 0.360218 0.693107
upperback -1.84222 0.609829 0.610128
thorax -7.18256 0.284507 0.157357
lowerneck -12.1431 -4.40044 -11.2347
upperneck 19.8306 -6.18985 13.1951
head 8.96115 -2.29588 5.75414
rclavicle 9.25397e-014 2.36057e-016
rhumerus -30.1624 -2.54203 -87.2682
rradius 21.9314
rwrist 17.2628
rhand -16.7965 15.9191
rfingers 7.12502
rthumb 9.4317 -13.8498
lclavicle 9.25397e-014 2.36057e-016
lhumerus -30.559 10.3954 86.554
lradius 22.0648
lwrist -5.70359
lhand -12.6485 11.7246
lfingers 7.12502
lthumb 13.432 41.2715
rfemur -4.9718 8.24218 21.0526
rtibia 23.7243
rfoot -19.1044 -20.5352
rtoes -3.67686
lfemur -10.0099 -11.3561 -20.9158
ltibia 27.0789
lfoot -17.4246 9.84476
ltoes -7.91157
29
root -17.0649 15.9245 11.0759 -176.285 59.3141 -177.264
lowerback 9.35026 0.366515 0.347023
upperback -1.81448 0.568231 0.505552
thorax -7.16607 0.275868 0.248639
lowerneck -12.0616 -4.52 -11.2138
upperneck 20.1281 -6.34148 13.0002
head 9.06182 -2.37932 5.67247
rclavicle 6.2312e-014 -1.26725e-015
rhumerus -30.2324 -2.46289 -87.3352
rradius 22.133
rwrist 17.0544
rhand -16.8208 15.7479
rfingers 7.12502
rthumb 9.40828 -14.0221
lclavicle 6.2312e-014 -1.26725e-015
lhumerus -30.6129 9.96028 86.6319
lradius 22.1519
lwrist -5.29618
lhand -12.7806 11.8949
lfingers 7.12502
lthumb 13.3047 41.4502
rfemur -4.99606 8.02404 20.6219
rtibia 24.052
rfoot -19.1821 -20.3588
rtoes -3.47876
lfemur -9.93262 -11.2302 -21.3433
ltibia 27.1724
lfoot -17.5375 9.463
ltoes -7.43293
30
root -17.067 15.9168 11.0495 -175.944 59.341 -176.752
lowerback 9.43593 0.392926 0.65608
upperback -1.7599 0.642339 0.517047
thorax -7.15409 0.299732 0.0748178
lowerneck -12.1197 -4.65311 -10.9788
upperneck 20.5497 -6.50392 12.5786
head 9.21794 -2.46743 5.47263
rclavicle 3.18366e-014 6.95746e-016
rhumerus -30.3145 -2.31547 -87.4275
rradius 22.4389
rwrist 16.577
rhand -16.6786 15.5881
rfingers 7.12502
rthumb 9.54544 -14.1757
lclavicle 3.18366e-014 6.95746e-016
lhumerus -30.6171 9.49687 86.6646
lradius 22.2396
lwrist -5.03378
lhand -12.6912 12.032
lfingers 7.12502
lthumb 13.3909 41.5817
rfemur -5.08531 7.90801 20.8376
rtibia 24.4555
rfoot -19.2755 -20.2957
rtoes -3.40608
lfemur -9.82028 -11.1682 -21.1497
ltibia 27.2678
lfoot -17.9331 9.33022
ltoes -7.6974
